<svg width="158" height="27" viewBox="0 0 158 27" fill="none" xmlns="http://www.w3.org/2000/svg">
<g clip-path="url(#clip0_1344_3999)">
<path d="M8.03543 5.43604L4.06286 11.9041L0 5.97504V5.43604H8.03543Z" fill="#FF0000"/>
<path d="M6.13867 9.56854L8.84724 5.34631H13.7227V9.56854H6.13867Z" fill="#FF7F00"/>
<path d="M0 14.5094V7.32263L4.87543 14.5094H0Z" fill="#FF1A00"/>
<path d="M13.8136 19.091H6.41016L9.84101 13.3416L13.8136 18.2825V19.091V19.091Z" fill="#FF4D00"/>
<path d="M7.85486 15.3179H0V19.0909H5.41714L7.85486 15.3179Z" fill="#FF3400"/>
<path d="M13.7229 10.377H8.48633L13.8132 17.2044V10.377H13.7229Z" fill="#FF6600"/>
<path d="M15.9805 3.99874V0.0460205H21.0365V3.99874H15.9805ZM15.9805 19.1808V5.34626H21.0365V19.1808H15.9805Z" fill="#FF0000"/>
<path d="M23.7461 19.1808V5.34628H28.3507V7.41247C28.8021 6.60396 29.3438 5.97512 30.0661 5.61578C30.6981 5.16661 31.5107 4.98694 32.5038 4.98694C33.4067 4.98694 34.129 5.16661 34.761 5.61578C35.393 6.06495 35.8444 6.60396 36.2958 7.41247C36.8375 6.60396 37.3792 5.97512 38.1015 5.61578C38.8238 5.25644 39.6364 4.98694 40.5392 4.98694C41.9838 4.98694 43.1575 5.43611 43.8798 6.33446C44.6924 7.2328 45.0535 8.49049 45.0535 10.1075V19.1808H39.9975V11.2754C39.9975 10.5567 39.9072 10.0177 39.6364 9.74817C39.3655 9.47867 39.0044 9.299 38.4627 9.299C38.0112 9.299 37.5598 9.47867 37.2889 9.838C37.0181 10.1973 36.8375 10.6465 36.8375 11.2754V19.1808H31.8718V11.3652C31.8718 10.6465 31.7815 10.1973 31.5107 9.838C31.2398 9.47867 30.8787 9.299 30.4272 9.299C29.8855 9.299 29.4341 9.47867 29.2535 9.838C28.9827 10.1973 28.8924 10.7364 28.8924 11.5449V19.2706H23.7461V19.1808Z" fill="#FF0000"/>
<path d="M47.4006 10.1973C47.4909 8.40064 48.0326 7.14296 49.2064 6.24461C50.2898 5.34627 51.9149 4.89709 54.0818 4.89709C54.9846 4.89709 55.8875 4.98693 56.6098 5.07676C57.3321 5.25643 57.9641 5.4361 58.5058 5.70561C59.4086 6.15478 60.1309 6.78362 60.4921 7.5023C60.8532 8.22097 61.0338 9.29899 61.0338 10.6465V17.9231C61.0338 18.1028 61.1241 18.2824 61.2144 18.4621C61.3046 18.6418 61.4852 18.7316 61.6658 18.8215V19.1808H56.3389L56.1584 17.6536C55.6166 18.3723 54.9846 18.8215 54.3526 19.1808C53.7206 19.4503 52.8178 19.63 51.7344 19.63C50.1995 19.63 49.0258 19.2706 48.2132 18.4621C47.3104 17.7434 46.9492 16.6654 46.9492 15.4077C46.9492 14.1501 47.3104 13.1619 48.1229 12.4432C48.9355 11.7245 50.2898 11.2753 52.1858 10.916C52.4566 10.8262 52.8178 10.8262 53.2692 10.7363C55.0749 10.4668 55.9778 10.0177 55.9778 9.47866C55.9778 9.11932 55.7972 8.84982 55.5264 8.67015C55.2555 8.49048 54.8041 8.40064 54.2624 8.40064C53.6304 8.40064 53.1789 8.58031 52.8178 8.84982C52.5469 9.11932 52.2761 9.56849 52.2761 10.1973H47.4006V10.1973ZM56.0681 12.8924C55.7069 13.1619 55.1652 13.4314 54.3526 13.611C54.2624 13.611 54.2624 13.611 54.1721 13.611C53.1789 13.8806 52.5469 14.0602 52.2761 14.2399C52.0052 14.4196 51.8246 14.6891 51.8246 15.0484C51.8246 15.4077 52.0052 15.6772 52.2761 15.8569C52.6372 16.0366 52.9984 16.2162 53.5401 16.2162C54.3526 16.2162 54.9846 15.9467 55.4361 15.4976C55.8875 15.0484 56.0681 14.3297 56.0681 13.4314C56.0681 13.2517 56.0681 13.1619 56.0681 13.072C56.0681 13.072 56.0681 12.9822 56.0681 12.8924Z" fill="#FF0000"/>
<path d="M68.076 11.6347C68.076 12.6229 68.2565 13.3416 68.6177 13.7907C68.9788 14.2399 69.5206 14.5094 70.2428 14.5094C70.9651 14.5094 71.5068 14.2399 71.868 13.7907C72.2291 13.3416 72.4097 12.6229 72.4097 11.6347C72.4097 10.6465 72.2291 9.92784 71.868 9.47867C71.5068 9.02949 70.9651 8.75999 70.2428 8.75999C69.5206 8.75999 68.9788 9.02949 68.6177 9.47867C68.2565 9.92784 68.076 10.6465 68.076 11.6347ZM72.2291 16.8451C71.6874 17.3841 71.1457 17.7434 70.5137 18.0129C69.972 18.2825 69.2497 18.3723 68.5274 18.3723C66.812 18.3723 65.4577 17.7434 64.4645 16.5756C63.4714 15.4077 62.9297 13.7009 62.9297 11.6347C62.9297 9.5685 63.4714 7.95148 64.4645 6.78363C65.4577 5.61578 66.812 4.98694 68.5274 4.98694C69.34 4.98694 70.1526 5.16661 70.6943 5.43611C71.3263 5.70561 71.868 6.15479 72.3194 6.87346V5.34628H77.1948V17.2943C77.1948 19.4503 76.5628 21.0673 75.3891 22.2352C74.2154 23.3132 72.4097 23.8522 69.972 23.8522C67.9857 23.8522 66.4508 23.4929 65.3674 22.7742C64.284 22.0555 63.652 20.8877 63.4714 19.4503H68.4371C68.5274 19.8096 68.6177 20.0791 68.8886 20.2588C69.1594 20.4385 69.5205 20.5283 69.972 20.5283C70.6943 20.5283 71.236 20.2588 71.5971 19.7198C71.9583 19.1808 72.1388 18.4621 72.1388 17.3841C72.1388 17.2943 72.1388 17.2943 72.1388 17.1146C72.2291 16.9349 72.2291 16.8451 72.2291 16.8451Z" fill="#FF0000"/>
<path d="M93.6269 14.9586C93.2658 16.3959 92.5435 17.5638 91.2795 18.3723C90.0155 19.1808 88.4806 19.63 86.6749 19.63C84.4178 19.63 82.6121 19.0011 81.2578 17.6536C79.9035 16.3061 79.2715 14.5094 79.2715 12.2635C79.2715 10.1075 79.9035 8.40066 81.2578 7.05314C82.6121 5.70562 84.3275 5.07678 86.4943 5.07678C88.7515 5.07678 90.5572 5.79546 91.9115 7.23281C93.1755 8.67016 93.8978 10.7364 93.8978 13.3416V13.5212H84.1469C84.2372 14.3297 84.5081 14.8687 85.0498 15.3179C85.5012 15.7671 86.0429 15.9468 86.7652 15.9468C87.2166 15.9468 87.5778 15.8569 87.9389 15.6773C88.3001 15.4976 88.4806 15.2281 88.6612 14.8687H93.6269V14.9586ZM84.3275 10.6465H89.0223C88.9321 10.0177 88.6612 9.47868 88.2098 9.11934C87.7583 8.76 87.3069 8.58033 86.5846 8.58033C86.0429 8.58033 85.5012 8.76 85.1401 9.11934C84.6886 9.47868 84.4178 9.92785 84.3275 10.6465Z" fill="#FF0000"/>
<path d="M95.1621 14.3297C95.2524 17.2044 97.0581 18.7316 100.308 18.7316C103.739 18.7316 105.635 17.2044 105.635 14.5992C105.635 12.4431 104.371 11.6346 101.753 11.0058L99.6764 10.5566C98.3221 10.2871 97.6901 9.92777 97.6901 9.02943C97.6901 7.95141 98.593 7.32257 100.308 7.32257C102.024 7.32257 103.107 8.04125 103.198 9.38876H105.274V9.29893C105.274 6.96323 103.378 5.52588 100.308 5.52588C97.2387 5.52588 95.5233 6.96323 95.5233 9.11926C95.5233 11.1855 96.6067 11.994 99.1347 12.6228L101.482 13.2517C102.836 13.5212 103.468 13.8805 103.468 14.9585C103.468 16.1264 102.385 16.9349 100.489 16.9349C98.5027 16.9349 97.4192 16.0365 97.2387 14.3297H95.1621Z" fill="#FF8202"/>
<path d="M116.739 14.4195C116.378 16.0365 115.204 16.9349 113.489 16.9349C111.231 16.9349 109.877 15.4975 109.787 12.8025H118.996C118.996 12.533 118.996 12.1736 118.996 11.9041C118.996 7.86159 116.829 5.61572 113.218 5.61572C109.697 5.61572 107.439 8.04126 107.439 12.3533C107.439 16.3959 109.697 18.8214 113.218 18.8214C116.197 18.8214 118.364 17.1145 118.815 14.4195H116.739ZM109.697 11.0058C109.877 8.6701 111.141 7.32258 113.218 7.32258C115.385 7.32258 116.649 8.58026 116.649 11.0058H109.697Z" fill="#FF8202"/>
<path d="M121.434 18.3723H123.6V1.30371H121.434V18.3723Z" fill="#FF8202"/>
<path d="M135.518 14.4195C135.157 16.0365 133.983 16.9349 132.268 16.9349C130.011 16.9349 128.656 15.4975 128.566 12.8025H137.775C137.775 12.533 137.775 12.1736 137.775 11.9041C137.775 7.86159 135.608 5.61572 131.997 5.61572C128.476 5.61572 126.219 8.04126 126.219 12.3533C126.219 16.3959 128.476 18.8214 131.997 18.8214C134.976 18.8214 137.143 17.1145 137.595 14.4195H135.518ZM128.566 11.0058C128.747 8.6701 130.011 7.32258 132.087 7.32258C134.254 7.32258 135.518 8.58026 135.518 11.0058H128.566Z" fill="#FF8202"/>
<path d="M148.791 10.1074H150.958C150.867 7.32257 148.791 5.52588 145.54 5.52588C141.929 5.52588 139.672 8.04125 139.672 12.1736C139.672 16.306 141.839 18.7316 145.27 18.7316C148.61 18.7316 150.687 16.9349 150.958 13.8805H148.881C148.61 15.767 147.346 16.845 145.36 16.845C143.193 16.845 141.839 15.1382 141.839 12.0838C141.839 9.02943 143.193 7.4124 145.45 7.4124C147.527 7.4124 148.61 8.40058 148.791 10.1074Z" fill="#FF8202"/>
<path d="M155.653 15.2281V7.59213H157.91V5.97511H155.653V2.47156H153.486V5.97511H151.59V7.68196H153.486V16.0366C153.486 17.9231 154.208 18.6418 156.194 18.6418C156.646 18.6418 157.278 18.5519 157.91 18.4621V16.6654C157.368 16.7553 157.007 16.7553 156.736 16.7553C155.833 16.6654 155.653 16.3061 155.653 15.2281Z" fill="#FF8202"/>
<path d="M95.4316 23.7624C95.4316 24.3912 95.8831 24.7505 96.6956 24.7505C97.5082 24.7505 98.0499 24.3912 98.0499 23.8522C98.0499 23.3132 97.7791 23.1335 97.0568 23.0437L96.5151 22.9539C96.1539 22.864 95.9734 22.7742 95.9734 22.5945C95.9734 22.325 96.1539 22.2352 96.6054 22.2352C97.0568 22.2352 97.3277 22.4149 97.3277 22.6844H97.8694C97.8694 22.1453 97.4179 21.786 96.6054 21.786C95.8831 21.786 95.4316 22.1453 95.4316 22.5945C95.4316 23.0437 95.7025 23.2234 96.3345 23.403L96.9665 23.5827C97.3276 23.6725 97.4179 23.7624 97.4179 23.942C97.4179 24.2115 97.1471 24.3912 96.6956 24.3912C96.1539 24.3912 95.8831 24.2115 95.8831 23.8522H95.4316V23.7624Z" fill="#FF0000"/>
<path d="M99.3135 23.942V22.2351H99.8552V21.8758H99.3135V21.0673H98.7717V21.8758H98.3203V22.2351H98.7717V24.1216C98.7717 24.5708 98.9523 24.7505 99.494 24.7505C99.5843 24.7505 99.7649 24.7505 99.9454 24.7505V24.3013C99.8552 24.3013 99.7649 24.3013 99.6746 24.3013C99.3135 24.3013 99.3135 24.2115 99.3135 23.942Z" fill="#FF0000"/>
<path d="M100.217 23.2234C100.217 24.2115 100.759 24.7505 101.752 24.7505C102.745 24.7505 103.287 24.2115 103.287 23.2234C103.287 22.2352 102.745 21.6962 101.752 21.6962C100.759 21.786 100.217 22.325 100.217 23.2234ZM100.759 23.2234C100.759 22.5047 101.12 22.1453 101.752 22.1453C102.384 22.1453 102.745 22.5047 102.745 23.2234C102.745 23.942 102.384 24.3014 101.752 24.3014C101.12 24.3014 100.759 23.942 100.759 23.2234Z" fill="#FF0000"/>
<path d="M105.995 22.7742H106.537C106.537 22.1453 105.995 21.786 105.183 21.786C104.28 21.786 103.738 22.325 103.738 23.3132C103.738 24.2115 104.28 24.8404 105.093 24.8404C105.905 24.8404 106.447 24.3912 106.537 23.7624H105.995C105.905 24.2115 105.634 24.3912 105.093 24.3912C104.551 24.3912 104.19 24.0319 104.19 23.3132C104.19 22.5945 104.551 22.2352 105.093 22.2352C105.725 22.1453 105.995 22.4149 105.995 22.7742Z" fill="#FF0000"/>
<path d="M107.078 24.6607H107.62V23.6726L108.162 23.2234L109.064 24.6607H109.696L108.523 22.864L109.696 21.8759H109.064L107.62 23.1335V20.7979H107.078V24.6607Z" fill="#FF0000"/>
<path d="M111.863 25.8286H112.405V24.3014C112.676 24.5709 112.947 24.7505 113.398 24.7505C114.211 24.7505 114.752 24.2115 114.752 23.2234C114.752 22.325 114.211 21.6962 113.398 21.6962C112.947 21.6962 112.586 21.8758 112.405 22.1453V21.786H111.863V25.8286ZM112.405 23.3132C112.405 22.5945 112.766 22.2352 113.308 22.2352C113.85 22.2352 114.301 22.5945 114.301 23.3132C114.301 24.0319 113.94 24.3912 113.398 24.3912C112.766 24.3014 112.405 24.0319 112.405 23.3132Z" fill="#FF0000"/>
<path d="M117.641 24.6607H118.183V22.864C118.183 22.5945 118.183 22.325 118.003 22.1454C117.822 21.8759 117.461 21.786 117.009 21.786C116.558 21.786 116.197 21.9657 116.016 22.2352V20.7979H115.475V24.6607H116.016V22.9539C116.016 22.5047 116.377 22.1454 116.919 22.1454C117.461 22.1454 117.551 22.4149 117.551 22.864V24.6607H117.641Z" fill="#FF0000"/>
<path d="M118.816 23.2234C118.816 24.2115 119.358 24.7505 120.351 24.7505C121.344 24.7505 121.886 24.2115 121.886 23.2234C121.886 22.2352 121.344 21.6962 120.351 21.6962C119.358 21.786 118.816 22.325 118.816 23.2234ZM119.358 23.2234C119.358 22.5047 119.719 22.1453 120.351 22.1453C120.983 22.1453 121.344 22.5047 121.344 23.2234C121.344 23.942 120.983 24.3014 120.351 24.3014C119.719 24.3014 119.358 23.942 119.358 23.2234Z" fill="#FF0000"/>
<path d="M123.149 23.942V22.2351H123.691V21.8758H123.149V21.0673H122.608V21.8758H122.156V22.2351H122.608V24.1216C122.608 24.5708 122.788 24.7505 123.33 24.7505C123.42 24.7505 123.601 24.7505 123.781 24.7505V24.3013C123.691 24.3013 123.601 24.3013 123.511 24.3013C123.149 24.3013 123.149 24.2115 123.149 23.942Z" fill="#FF0000"/>
<path d="M124.053 23.2234C124.053 24.2115 124.594 24.7505 125.588 24.7505C126.581 24.7505 127.122 24.2115 127.122 23.2234C127.122 22.2352 126.581 21.6962 125.588 21.6962C124.594 21.786 124.053 22.325 124.053 23.2234ZM124.594 23.2234C124.594 22.5047 124.956 22.1453 125.588 22.1453C126.22 22.1453 126.581 22.5047 126.581 23.2234C126.581 23.942 126.22 24.3014 125.588 24.3014C124.956 24.3014 124.594 23.942 124.594 23.2234Z" fill="#FF0000"/>
<path d="M127.484 23.7624C127.484 24.3912 127.936 24.7505 128.748 24.7505C129.561 24.7505 130.103 24.3912 130.103 23.8522C130.103 23.3132 129.742 23.1335 129.11 23.0437L128.568 22.9539C128.207 22.864 128.026 22.7742 128.026 22.5945C128.026 22.325 128.207 22.2352 128.658 22.2352C129.11 22.2352 129.38 22.4149 129.38 22.6844H129.922C129.922 22.1453 129.471 21.786 128.658 21.786C127.936 21.786 127.484 22.1453 127.484 22.5945C127.484 23.0437 127.755 23.2234 128.387 23.403L129.019 23.5827C129.38 23.6725 129.471 23.7624 129.471 23.942C129.471 24.2115 129.2 24.3912 128.748 24.3912C128.207 24.3912 127.936 24.2115 127.936 23.8522H127.484V23.7624Z" fill="#FF0000"/>
<path d="M134.345 23.2234V23.6725C134.345 24.0319 133.984 24.3912 133.352 24.3912C132.991 24.3912 132.81 24.2115 132.81 23.942C132.81 23.6725 132.991 23.4929 133.352 23.4929C133.713 23.403 134.074 23.403 134.345 23.2234ZM134.345 24.3014C134.345 24.5709 134.526 24.7505 134.887 24.7505C134.977 24.7505 135.067 24.7505 135.158 24.7505V24.3014C135.067 24.3014 135.067 24.3014 134.977 24.3014C134.796 24.3014 134.796 24.2115 134.796 24.0319V22.5945C134.796 21.9657 134.435 21.6962 133.532 21.6962C132.72 21.6962 132.268 22.0555 132.268 22.5945H132.81C132.81 22.2352 133.081 22.0555 133.532 22.0555C133.984 22.0555 134.255 22.2352 134.255 22.5047C134.255 22.6843 134.255 22.7742 134.074 22.7742C133.984 22.864 133.623 22.864 133.171 22.864C132.449 22.9539 132.088 23.2234 132.088 23.7624C132.088 24.3014 132.449 24.5709 133.081 24.5709C133.713 24.7505 134.074 24.5709 134.345 24.3014Z" fill="#FF0000"/>
<path d="M137.866 24.6607H138.408V22.864C138.408 22.5945 138.408 22.325 138.227 22.1453C138.047 21.8758 137.686 21.786 137.234 21.786C136.783 21.786 136.421 21.9657 136.241 22.2352V21.786H135.699V24.5709H136.241V22.9539C136.241 22.4149 136.602 22.0555 137.144 22.0555C137.685 22.0555 137.776 22.325 137.776 22.7742V24.6607H137.866Z" fill="#FF0000"/>
<path d="M141.928 20.7979H141.387V22.2352C141.116 21.9657 140.754 21.786 140.393 21.786C139.581 21.786 139.039 22.325 139.039 23.3132C139.039 24.2116 139.581 24.8404 140.393 24.8404C140.845 24.8404 141.116 24.6607 141.387 24.3912V24.7506H141.928V20.7979ZM141.477 23.2234C141.477 23.9421 141.116 24.3014 140.574 24.3014C140.032 24.3014 139.581 23.9421 139.581 23.2234C139.581 22.5047 139.942 22.1454 140.484 22.1454C141.116 22.1454 141.477 22.5047 141.477 23.2234Z" fill="#FF0000"/>
<path d="M148.339 24.6607H148.881V22.864C148.881 22.5945 148.881 22.325 148.791 22.1453C148.61 21.8758 148.339 21.786 147.888 21.786C147.436 21.786 147.166 21.9657 146.895 22.2352C146.714 21.9657 146.443 21.786 145.992 21.786C145.54 21.786 145.27 21.9657 144.999 22.2352V21.8758H144.457V24.6607H144.999V22.9539C144.999 22.4149 145.27 22.1453 145.811 22.1453C146.263 22.1453 146.353 22.4149 146.353 22.864V24.5709H146.895V22.864C146.895 22.325 147.166 22.0555 147.707 22.0555C148.159 22.0555 148.249 22.325 148.249 22.7742V24.6607H148.339Z" fill="#FF0000"/>
<path d="M149.514 23.2234C149.514 24.2115 150.055 24.7505 151.049 24.7505C152.042 24.7505 152.583 24.2115 152.583 23.2234C152.583 22.2352 152.042 21.6962 151.049 21.6962C150.055 21.786 149.514 22.325 149.514 23.2234ZM150.055 23.2234C150.055 22.5047 150.417 22.1453 151.049 22.1453C151.681 22.1453 152.042 22.5047 152.042 23.2234C152.042 23.942 151.681 24.3014 151.049 24.3014C150.417 24.3014 150.055 23.942 150.055 23.2234Z" fill="#FF0000"/>
<path d="M153.215 24.6607H153.757V23.0437C153.757 22.5047 154.028 22.2352 154.66 22.2352H154.75V21.6962C154.66 21.6962 154.66 21.6962 154.57 21.6962C154.118 21.6962 153.847 21.8758 153.667 22.2352V21.6962H153.125V24.6607H153.215Z" fill="#FF0000"/>
<path d="M157.369 23.7624C157.279 24.1217 157.008 24.3014 156.556 24.3014C156.015 24.3014 155.653 23.942 155.653 23.403H157.911C157.911 23.3132 157.911 23.2234 157.911 23.2234C157.911 22.325 157.369 21.786 156.466 21.786C155.563 21.786 155.021 22.325 155.021 23.3132C155.021 24.2115 155.563 24.7505 156.466 24.7505C157.188 24.7505 157.73 24.3912 157.82 23.7624H157.369ZM155.653 23.0437C155.744 22.5047 156.015 22.2352 156.556 22.2352C157.098 22.2352 157.369 22.5047 157.369 23.0437H155.653Z" fill="#FF0000"/>
</g>
<defs>
<clipPath id="clip0_1344_3999">
<rect width="158" height="26.052" fill="white" transform="translate(0 0.0460205)"/>
</clipPath>
</defs>
</svg>
