<svg width="15" height="16" viewBox="0 0 15 16" fill="none" xmlns="http://www.w3.org/2000/svg">
<g clip-path="url(#clip0_1344_4043)">
<path d="M7.5 15.086C11.6421 15.086 15 11.7215 15 7.57104C15 3.42061 11.6421 0.0560303 7.5 0.0560303C3.35786 0.0560303 0 3.42061 0 7.57104C0 11.7215 3.35786 15.086 7.5 15.086Z" fill="#F0F0F0"/>
<path d="M1.54983 2.99573C0.960703 3.76376 0.516475 4.64897 0.257812 5.61063H4.15951L1.54983 2.99573Z" fill="#0052B4"/>
<path d="M14.7415 5.61061C14.4828 4.64898 14.0386 3.76376 13.4495 2.99573L10.8398 5.61061H14.7415Z" fill="#0052B4"/>
<path d="M0.257812 9.53149C0.516504 10.4931 0.960732 11.3783 1.54983 12.1463L4.15942 9.53149H0.257812Z" fill="#0052B4"/>
<path d="M12.0667 1.60946C11.3002 1.01915 10.4168 0.574028 9.45703 0.314819V4.2243L12.0667 1.60946Z" fill="#0052B4"/>
<path d="M2.93359 13.5324C3.70009 14.1227 4.58354 14.5678 5.54324 14.8271V10.9176L2.93359 13.5324Z" fill="#0052B4"/>
<path d="M5.54321 0.314819C4.58351 0.574028 3.70006 1.01915 2.93359 1.60943L5.54321 4.22427V0.314819Z" fill="#0052B4"/>
<path d="M9.45703 14.8271C10.4167 14.5678 11.3002 14.1227 12.0667 13.5324L9.45703 10.9176V14.8271Z" fill="#0052B4"/>
<path d="M10.8398 9.53149L13.4495 12.1464C14.0386 11.3784 14.4828 10.4931 14.7415 9.53149H10.8398Z" fill="#0052B4"/>
<path d="M14.9365 6.59083H8.47831H8.47828V0.119644C8.15804 0.0778708 7.83155 0.0560303 7.5 0.0560303C7.16839 0.0560303 6.84196 0.0778708 6.52175 0.119644V6.59077V6.5908H0.0634863C0.0217969 6.91168 0 7.23882 0 7.57104C0 7.90331 0.0217969 8.23039 0.0634863 8.55125H6.52169H6.52172V15.0224C6.84196 15.0642 7.16839 15.086 7.5 15.086C7.83155 15.086 8.15804 15.0642 8.47825 15.0224V8.55131V8.55128H14.9365C14.9782 8.23039 15 7.90331 15 7.57104C15 7.23882 14.9782 6.91168 14.9365 6.59083Z" fill="#D80027"/>
<path d="M9.45703 9.53165L12.8038 12.8851C12.9577 12.7309 13.1046 12.5697 13.2446 12.4026L10.3794 9.53162H9.45703V9.53165Z" fill="#D80027"/>
<path d="M5.54404 9.53162H5.54398L2.19727 12.885C2.35113 13.0393 2.512 13.1864 2.67876 13.3268L5.54404 10.4557V9.53162Z" fill="#D80027"/>
<path d="M5.54348 5.61063V5.61057L2.19672 2.25708C2.04279 2.41126 1.89596 2.57245 1.75586 2.73954L4.62118 5.6106H5.54348V5.61063Z" fill="#D80027"/>
<path d="M9.45703 5.61053L12.8038 2.25702C12.65 2.10279 12.4891 1.95566 12.3223 1.81531L9.45703 4.68636V5.61053V5.61053Z" fill="#D80027"/>
</g>
<defs>
<clipPath id="clip0_1344_4043">
<rect width="15" height="15.03" fill="white" transform="translate(0 0.0560303)"/>
</clipPath>
</defs>
</svg>
